<svg width="24" height="29" viewBox="0 0 24 29" fill="none" xmlns="http://www.w3.org/2000/svg">
<path d="M21.3333 7H18.6667C18.6667 3.26666 15.7333 0.333328 12 0.333328C8.26667 0.333328 5.33333 3.26666 5.33333 7H2.66667C1.2 7 0 8.2 0 9.66666V25.6667C0 27.1333 1.2 28.3333 2.66667 28.3333H21.3333C22.8 28.3333 24 27.1333 24 25.6667V9.66666C24 8.2 22.8 7 21.3333 7ZM12 2.99999C14.2667 2.99999 16 4.73333 16 7H8C8 4.73333 9.73333 2.99999 12 2.99999ZM21.3333 25.6667H2.66667V9.66666H21.3333V25.6667ZM12 15C9.73333 15 8 13.2667 8 11H5.33333C5.33333 14.7333 8.26667 17.6667 12 17.6667C15.7333 17.6667 18.6667 14.7333 18.6667 11H16C16 13.2667 14.2667 15 12 15Z" fill="#737791"/>
</svg>
